<?xml version="1.0" encoding="utf-8"?>
<!-- Generator: Adobe Illustrator 26.5.2, SVG Export Plug-In . SVG Version: 6.00 Build 0)  -->
<svg version="1.1" id="Ebene_1" xmlns="http://www.w3.org/2000/svg" xmlns:xlink="http://www.w3.org/1999/xlink" x="0px" y="0px"
	 viewBox="0 0 68.79 49.99" style="enable-background:new 0 0 68.79 49.99;" xml:space="preserve">
<style type="text/css">
	.st0{clip-path:url(#SVGID_00000099651125890845102520000016187403679766571452_);fill:none;stroke:#000000;stroke-width:2;}
	.st1{fill:#000000;}
	.st2{clip-path:url(#SVGID_00000147208344814507437870000009888119754388838325_);fill:#000000;}
</style>
<g>
	<defs>
		<rect id="SVGID_1_" x="18.9" y="3.23" width="31" height="43.52"/>
	</defs>
	<clipPath id="SVGID_00000002381523282604351380000017073365268458706829_">
		<use xlink:href="#SVGID_1_"  style="overflow:visible;"/>
	</clipPath>

		<path style="clip-path:url(#SVGID_00000002381523282604351380000017073365268458706829_);fill:none;stroke:#000000;stroke-width:2;" d="
		M19.9,4.23c0,11.6,6.49,21,14.5,21s14.5-9.4,14.5-21"/>

		<path style="clip-path:url(#SVGID_00000002381523282604351380000017073365268458706829_);fill:none;stroke:#000000;stroke-width:2;" d="
		M48.9,46.75c0-11.6-6.49-21-14.5-21s-14.5,9.4-14.5,21"/>

		<line style="clip-path:url(#SVGID_00000002381523282604351380000017073365268458706829_);fill:none;stroke:#000000;stroke-width:2;" x1="49.9" y1="4.23" x2="18.9" y2="4.23"/>
</g>
<polygon class="st1" points="20.89,40.23 19.48,46.34 18.89,46.75 49.89,46.75 47.89,40.23 "/>
<g>
	<defs>
		<rect id="SVGID_00000103954022347808819690000003299646801374236053_" x="18.9" y="3.23" width="31" height="43.52"/>
	</defs>
	<clipPath id="SVGID_00000100361035735780514360000001398273389707524522_">
		<use xlink:href="#SVGID_00000103954022347808819690000003299646801374236053_"  style="overflow:visible;"/>
	</clipPath>
	<path style="clip-path:url(#SVGID_00000100361035735780514360000001398273389707524522_);fill:#000000;" d="M23.12,17.22
		c2.64,5.21,6.9,8.6,11.7,8.6c4.97,0,9.35-3.61,11.96-9.12"/>
	<path style="clip-path:url(#SVGID_00000100361035735780514360000001398273389707524522_);fill:#000000;" d="M34.4,33.38
		c1.1,0,1.99-0.89,1.99-1.99S35.5,29.4,34.4,29.4s-1.99,0.89-1.99,1.99S33.3,33.38,34.4,33.38"/>
	<path style="clip-path:url(#SVGID_00000100361035735780514360000001398273389707524522_);fill:#000000;" d="M34.4,39.05
		c1.1,0,1.99-0.89,1.99-1.99s-0.89-1.99-1.99-1.99s-1.99,0.89-1.99,1.99S33.3,39.05,34.4,39.05"/>
</g>
</svg>
