<?xml version="1.0" encoding="utf-8"?>
<!-- Generator: Adobe Illustrator 26.5.2, SVG Export Plug-In . SVG Version: 6.00 Build 0)  -->
<svg version="1.1" id="Ebene_1" xmlns="http://www.w3.org/2000/svg" xmlns:xlink="http://www.w3.org/1999/xlink" x="0px" y="0px"
	 viewBox="0 0 68.79 49.99" style="enable-background:new 0 0 68.79 49.99;" xml:space="preserve">
<style type="text/css">
	.st0{fill:none;stroke:#000000;stroke-width:2;}
	.st1{clip-path:url(#SVGID_00000066498371672660000080000006769469819838576317_);fill:none;stroke:#000000;stroke-width:2;}
	.st2{clip-path:url(#SVGID_00000038397378070319341040000009085056146214724748_);fill:none;stroke:#000000;stroke-width:2;}
	.st3{clip-path:url(#SVGID_00000178163328849065468970000007088992977607061666_);fill:none;stroke:#000000;stroke-width:2;}
</style>
<line class="st0" x1="26.42" y1="14.18" x2="47.14" y2="14.18"/>
<g>
	<defs>
		<rect id="SVGID_1_" x="2.69" y="6.77" width="63.42" height="36.45"/>
	</defs>
	<clipPath id="SVGID_00000075164186184846094050000003564657721423145354_">
		<use xlink:href="#SVGID_1_"  style="overflow:visible;"/>
	</clipPath>

		<line style="clip-path:url(#SVGID_00000075164186184846094050000003564657721423145354_);fill:none;stroke:#000000;stroke-width:2;" x1="24.22" y1="8.68" x2="32.82" y2="27.66"/>
</g>
<line class="st0" x1="36.78" y1="28.12" x2="47.14" y2="14.18"/>
<g>
	<defs>
		<rect id="SVGID_00000183966019995591516690000012723062405778260632_" x="2.69" y="6.77" width="63.42" height="36.45"/>
	</defs>
	<clipPath id="SVGID_00000072265875409170487320000000711239212074511758_">
		<use xlink:href="#SVGID_00000183966019995591516690000012723062405778260632_"  style="overflow:visible;"/>
	</clipPath>

		<line style="clip-path:url(#SVGID_00000072265875409170487320000000711239212074511758_);fill:none;stroke:#000000;stroke-width:2;" x1="44.02" y1="8.23" x2="54.63" y2="31.23"/>
</g>
<line class="st0" x1="26.42" y1="14.18" x2="15.82" y2="31.23"/>
<line class="st0" x1="15.82" y1="31.23" x2="31.57" y2="31.23"/>
<g>
	<defs>
		<rect id="SVGID_00000111888370019300862660000000265952183603229628_" x="2.69" y="6.77" width="63.42" height="36.45"/>
	</defs>
	<clipPath id="SVGID_00000079485641235697022820000002980933881765422221_">
		<use xlink:href="#SVGID_00000111888370019300862660000000265952183603229628_"  style="overflow:visible;"/>
	</clipPath>

		<line style="clip-path:url(#SVGID_00000079485641235697022820000002980933881765422221_);fill:none;stroke:#000000;stroke-width:2;" x1="28.52" y1="7.77" x2="17.92" y2="8.23"/>

		<path style="clip-path:url(#SVGID_00000079485641235697022820000002980933881765422221_);fill:none;stroke:#000000;stroke-width:2;" d="
		M44.34,9.01l8.48-0.46c0,0,5.5,3.84-1.1,6.74"/>

		<path style="clip-path:url(#SVGID_00000079485641235697022820000002980933881765422221_);fill:none;stroke:#000000;stroke-width:2;" d="
		M14.52,42.22c5.98,0,10.83-4.85,10.83-10.83c0-5.98-4.85-10.83-10.83-10.83S3.69,25.41,3.69,31.39
		C3.69,37.37,8.53,42.22,14.52,42.22z"/>

		<path style="clip-path:url(#SVGID_00000079485641235697022820000002980933881765422221_);fill:none;stroke:#000000;stroke-width:2;" d="
		M54.27,42.22c5.98,0,10.83-4.85,10.83-10.83c0-5.98-4.85-10.83-10.83-10.83s-10.83,4.85-10.83,10.83
		C43.44,37.37,48.29,42.22,54.27,42.22z"/>

		<path style="clip-path:url(#SVGID_00000079485641235697022820000002980933881765422221_);fill:none;stroke:#000000;stroke-width:2;" d="
		M34.78,35.04c2.02,0,3.65-1.64,3.65-3.66c0-2.02-1.64-3.66-3.65-3.66c-2.02,0-3.66,1.64-3.66,3.66
		C31.13,33.41,32.77,35.04,34.78,35.04z"/>
</g>
</svg>
