<?xml version="1.0" encoding="utf-8"?>
<!-- Generator: Adobe Illustrator 26.5.2, SVG Export Plug-In . SVG Version: 6.00 Build 0)  -->
<svg version="1.1" id="Ebene_1" xmlns="http://www.w3.org/2000/svg" xmlns:xlink="http://www.w3.org/1999/xlink" x="0px" y="0px"
	 viewBox="0 0 76.42 55.12" style="enable-background:new 0 0 76.42 55.12;" xml:space="preserve">
<style type="text/css">

		.st0{clip-path:url(#SVGID_00000020380840778377564090000008583616694841581725_);fill:none;stroke:#000000;stroke-width:2;stroke-linecap:round;}
	.st1{clip-path:url(#SVGID_00000020380840778377564090000008583616694841581725_);fill:none;stroke:#000000;stroke-width:2;}
	.st2{fill:none;stroke:#000000;stroke-width:2;stroke-linecap:round;}

		.st3{clip-path:url(#SVGID_00000138560671829600977760000006828605486876830124_);fill:none;stroke:#000000;stroke-width:2;stroke-linecap:round;}
	.st4{clip-path:url(#SVGID_00000138560671829600977760000006828605486876830124_);fill:none;}
	.st5{clip-path:url(#SVGID_00000138560671829600977760000006828605486876830124_);fill:none;stroke:#000000;stroke-width:2;}
</style>
<g>
	<defs>
		<rect id="SVGID_1_" x="10.65" y="3.02" width="55.11" height="47.72"/>
	</defs>
	<clipPath id="SVGID_00000049942590963140898510000018066907435509131708_">
		<use xlink:href="#SVGID_1_"  style="overflow:visible;"/>
	</clipPath>

		<path style="clip-path:url(#SVGID_00000049942590963140898510000018066907435509131708_);fill:none;stroke:#000000;stroke-width:2;stroke-linecap:round;" d="
		M11.86,15.99c0,0-1.88,7.5,5.62,7.5"/>

		<path style="clip-path:url(#SVGID_00000049942590963140898510000018066907435509131708_);fill:none;stroke:#000000;stroke-width:2;" d="
		M64.36,24.62l-5.62-1.12l-5.62-7.5v-7.5c0,0-5.62,1.88-7.5,5.62c-4.36-0.97-8.34-1.18-11.85-0.81c-0.8,3.28-3.75,5.71-7.28,5.71
		c-1.57,0-3.02-0.48-4.22-1.3c-3.07,2.53-4.77,5.88-4.77,9.53c0,9.38,8.87,16.88,8.87,16.88l0.5,5.62h7.5v-5.62h7.5v5.62h7.5v-5.62
		c5.62,0,7.5-9.31,7.5-9.31l7.87-0.07L64.36,24.62z"/>
</g>
<line class="st2" x1="51.13" y1="22.79" x2="49.25" y2="22.79"/>
<g>
	<defs>
		<rect id="SVGID_00000143577027397028407910000000348725674692927905_" x="10.65" y="3.02" width="55.11" height="47.72"/>
	</defs>
	<clipPath id="SVGID_00000085970805095014349590000007945251162181963707_">
		<use xlink:href="#SVGID_00000143577027397028407910000000348725674692927905_"  style="overflow:visible;"/>
	</clipPath>

		<path style="clip-path:url(#SVGID_00000085970805095014349590000007945251162181963707_);fill:none;stroke:#000000;stroke-width:2;stroke-linecap:round;" d="
		M24.42,20.36c0,0,1.17-1.35,1.41-1.37c3.14-0.26,4.88-0.8,6.37-2.63c0.31-0.38,1.74-0.17,2.72-0.14"/>
	<path style="clip-path:url(#SVGID_00000085970805095014349590000007945251162181963707_);fill:none;" d="M26.48,19.02
		c4.14,0,7.5-3.36,7.5-7.5s-3.36-7.5-7.5-7.5s-7.5,3.36-7.5,7.5S22.34,19.02,26.48,19.02"/>

		<circle style="clip-path:url(#SVGID_00000085970805095014349590000007945251162181963707_);fill:none;stroke:#000000;stroke-width:2;" cx="26.48" cy="11.52" r="7.5"/>
</g>
</svg>
