<?xml version="1.0" encoding="utf-8"?>
<!-- Generator: Adobe Illustrator 26.5.2, SVG Export Plug-In . SVG Version: 6.00 Build 0)  -->
<svg version="1.1" id="Ebene_1" xmlns="http://www.w3.org/2000/svg" xmlns:xlink="http://www.w3.org/1999/xlink" x="0px" y="0px"
	 viewBox="0 0 76.42 55.12" style="enable-background:new 0 0 76.42 55.12;" xml:space="preserve">
<style type="text/css">

		.st0{clip-path:url(#SVGID_00000152263205743952293720000006359527326316737442_);fill:none;stroke:#000000;stroke-width:2;stroke-linecap:round;}
</style>
<g>
	<defs>
		<rect id="SVGID_1_" x="12.67" y="3.84" width="54.27" height="47.5"/>
	</defs>
	<clipPath id="SVGID_00000165947657615511476640000006353988909967508403_">
		<use xlink:href="#SVGID_1_"  style="overflow:visible;"/>
	</clipPath>

		<path style="clip-path:url(#SVGID_00000165947657615511476640000006353988909967508403_);fill:none;stroke:#000000;stroke-width:2;stroke-linecap:round;" d="
		M65.88,27.95c0,0,1-2-6-2s-10,7-10,7s-3-5-11-5s-10,9-10,9s1-15,5-17c5,0,6-0.89,6-0.89s1-3.1,0-3.1s4-1,4-1s0-2-1-3s1-4,0-4
		s-1-2-2-2s-8-1-8-1s-2,6-4,7s-20,25-14,31c6,1,11,6,16,7s21,0,23-2"/>

		<path style="clip-path:url(#SVGID_00000165947657615511476640000006353988909967508403_);fill:none;stroke:#000000;stroke-width:2;stroke-linecap:round;" d="
		M46.88,36.95c0,0-2,7-11,2"/>
</g>
</svg>
