<?xml version="1.0" encoding="utf-8"?>
<!-- Generator: Adobe Illustrator 26.5.2, SVG Export Plug-In . SVG Version: 6.00 Build 0)  -->
<svg version="1.1" id="Ebene_1" xmlns="http://www.w3.org/2000/svg" xmlns:xlink="http://www.w3.org/1999/xlink" x="0px" y="0px"
	 viewBox="0 0 68.79 49.99" style="enable-background:new 0 0 68.79 49.99;" xml:space="preserve">
<style type="text/css">
	.st0{clip-path:url(#SVGID_00000129170286722093424980000009768539867887604403_);fill:none;stroke:#000000;stroke-width:2;}
</style>
<g>
	<defs>
		<rect id="SVGID_1_" x="5.76" y="9.08" width="57.28" height="33.57"/>
	</defs>
	<clipPath id="SVGID_00000000931837217217920170000010180358140643805846_">
		<use xlink:href="#SVGID_1_"  style="overflow:visible;"/>
	</clipPath>

		<path style="clip-path:url(#SVGID_00000000931837217217920170000010180358140643805846_);fill:none;stroke:#000000;stroke-width:2;" d="
		M58.05,23.65c10,10-2,18-2,18h-43c0,0-12-6.22-2.87-15.83"/>

		<path style="clip-path:url(#SVGID_00000000931837217217920170000010180358140643805846_);fill:none;stroke:#000000;stroke-width:2;" d="
		M55.05,30.65c0,0,9-12-3.63-13"/>

		<path style="clip-path:url(#SVGID_00000000931837217217920170000010180358140643805846_);fill:none;stroke:#000000;stroke-width:2;" d="
		M18.05,31.32c0,0-14.87-4.93-4-14.09c9-7.58,15.42-5.58,15.42-5.58"/>

		<path style="clip-path:url(#SVGID_00000000931837217217920170000010180358140643805846_);fill:none;stroke:#000000;stroke-width:2;" d="
		M12.05,32.8c0,0-2.97,5.85,2.54,8.85"/>

		<path style="clip-path:url(#SVGID_00000000931837217217920170000010180358140643805846_);fill:none;stroke:#000000;stroke-width:2;" d="
		M50.05,34.65c0,0,2.06-1.65-2-6.29c-2.37-2.71,3.68-5.61,3-9.71c-0.82-4.93-2.41-7-10-7"/>

		<path style="clip-path:url(#SVGID_00000000931837217217920170000010180358140643805846_);fill:none;stroke:#000000;stroke-width:2;" d="
		M26.35,16.36c0,0,1.39-6.9,9.71-6.24c3,0.24,5,1.53,5,1.53"/>

		<path style="clip-path:url(#SVGID_00000000931837217217920170000010180358140643805846_);fill:none;stroke:#000000;stroke-width:2;" d="
		M36.05,16.56c0,0,1-4.91,5-4.91"/>

		<path style="clip-path:url(#SVGID_00000000931837217217920170000010180358140643805846_);fill:none;stroke:#000000;stroke-width:2;" d="
		M19.42,36.65c0,0-6.8-7.03,3.63-9c6.72-1.27,12.02,7.78,12.02,7.78"/>

		<path style="clip-path:url(#SVGID_00000000931837217217920170000010180358140643805846_);fill:none;stroke:#000000;stroke-width:2;" d="
		M14.95,23.95c0,0,6.1-2.35,7.1-6.3"/>

		<path style="clip-path:url(#SVGID_00000000931837217217920170000010180358140643805846_);fill:none;stroke:#000000;stroke-width:2;" d="
		M31.05,18.65c0,0-6.61,4.38-11.42,2.69"/>

		<path style="clip-path:url(#SVGID_00000000931837217217920170000010180358140643805846_);fill:none;stroke:#000000;stroke-width:2;" d="
		M34.4,23.04c0,0-4.68,4.03-2.34,8.21"/>

		<path style="clip-path:url(#SVGID_00000000931837217217920170000010180358140643805846_);fill:none;stroke:#000000;stroke-width:2;" d="
		M25.37,33.94c0,0-1.21,5.74,4.04,7.71"/>

		<path style="clip-path:url(#SVGID_00000000931837217217920170000010180358140643805846_);fill:none;stroke:#000000;stroke-width:2;" d="
		M42.05,21.14c0,0-4,3.89-3,7.51s4,5,4,8s-2.08,5.29-2.08,5.29"/>
</g>
</svg>
