<?xml version="1.0" encoding="utf-8"?>
<!-- Generator: Adobe Illustrator 26.5.2, SVG Export Plug-In . SVG Version: 6.00 Build 0)  -->
<svg version="1.1" id="Ebene_1" xmlns="http://www.w3.org/2000/svg" xmlns:xlink="http://www.w3.org/1999/xlink" x="0px" y="0px"
	 viewBox="0 0 96.86 78.97" style="enable-background:new 0 0 96.86 78.97;" xml:space="preserve">
<style type="text/css">
	.st0{clip-path:url(#SVGID_00000080888124213334085830000006527459382615232666_);fill:none;stroke:#000000;stroke-width:2;}
	.st1{clip-path:url(#SVGID_00000080888124213334085830000006527459382615232666_);}
	.st2{fill:#000000;}
	.st3{clip-path:url(#SVGID_00000080888124213334085830000006527459382615232666_);fill:#000000;}
</style>
<g>
	<defs>
		<rect id="SVGID_1_" x="4.48" y="9.28" width="88.01" height="56.16"/>
	</defs>
	<clipPath id="SVGID_00000003813926682326220520000004516542572652603275_">
		<use xlink:href="#SVGID_1_"  style="overflow:visible;"/>
	</clipPath>

		<path style="clip-path:url(#SVGID_00000003813926682326220520000004516542572652603275_);fill:none;stroke:#000000;stroke-width:2;" d="
		M7.48,26.35c-1.11,0-2,0.9-2,2v35.15c0,1.1,0.51,1.26,1.13,0.35l5.61-8.18c0.62-0.91,2.03-1.65,3.13-1.65h35.1c1.1,0,2-0.9,2-2
		V28.35c0-1.1-0.9-2-2-2H7.48z"/>

		<path style="clip-path:url(#SVGID_00000003813926682326220520000004516542572652603275_);fill:none;stroke:#000000;stroke-width:2;" d="
		M89.49,10.28c1.1,0,2,0.9,2,2v35.15c0,1.1-0.51,1.26-1.13,0.35l-5.61-8.18c-0.62-0.91-2.03-1.65-3.13-1.65h-35.1c-1.1,0-2-0.9-2-2
		V12.28c0-1.1,0.9-2,2-2H89.49z"/>
	<g style="clip-path:url(#SVGID_00000003813926682326220520000004516542572652603275_);">
		<path class="st2" d="M62.07,18.59H60.8v8.85h1.28c2.6,0,3.91-1.65,3.91-4.47C65.99,20.16,64.68,18.59,62.07,18.59z"/>
		<path class="st2" d="M89.49,10.28H46.51c-1.1,0-2,0.9-2,2v23.66c0,1.1,0.9,2,2,2h35.1c1.1,0,2.51,0.74,3.13,1.65l5.61,8.18
			c0.62,0.91,1.13,0.75,1.13-0.35V12.28C91.49,11.17,90.6,10.28,89.49,10.28z M62.24,28.6h-2.86V17.44h2.79
			c3.44,0,5.27,1.99,5.27,5.53C67.45,26.52,65.61,28.6,62.24,28.6z M76.62,28.6h-6.6V17.44h6.43v1.19h-5.02v3.5h4.23v1.21h-4.23
			v4.05h5.19V28.6z"/>
	</g>
	<path style="clip-path:url(#SVGID_00000003813926682326220520000004516542572652603275_);fill:#000000;" d="M29.56,45.67h1.34
		v-5.83c0-1.17-0.1-2.36-0.19-3.49h0.07l1.21,2.3l4.05,7.02h1.46V34.52h-1.34v5.77c0,1.17,0.1,2.43,0.17,3.56h-0.07l-1.21-2.31
		l-4.03-7.01h-1.46V45.67z M20.43,45.67h6.6v-1.21h-5.19v-4.05h4.24v-1.21h-4.24v-3.5h5.02v-1.19h-6.43V45.67z"/>
</g>
</svg>
